HIERARCHY
ROOT Hips
{
	OFFSET 0.000000 83.214638 0.000000
	CHANNELS 6 Xposition Yposition Zposition Xrotation Yrotation Zrotation
	JOINT Pelvis
	{
		OFFSET 0.000000 0.000000 0.000000
		CHANNELS 3 Xrotation Yrotation Zrotation
		JOINT LeftUpLeg
		{
			OFFSET 8.479700 -4.795502 -0.379100
			CHANNELS 3 Xrotation Yrotation Zrotation
			JOINT LeftLeg
			{
				OFFSET 0.024144 -32.555107 0.112900
				CHANNELS 3 Xrotation Yrotation Zrotation
				JOINT LeftFoot
				{
					OFFSET -0.024144 -32.638630 -3.012600
					CHANNELS 3 Xrotation Yrotation Zrotation
					JOINT LeftToeBase
					{
						OFFSET 0.970200 -13.225400 11.864200
						CHANNELS 3 Xrotation Yrotation Zrotation
						End Site
						{
							OFFSET 0.000000 12.319262 0.000000
						}
					}
					JOINT LFootTongue
					{
						OFFSET 1.142400 -1.059800 6.665200
						CHANNELS 3 Xrotation Yrotation Zrotation
						End Site
						{
							OFFSET 0.000000 12.319262 0.000000
						}
					}
				}
				JOINT LeftPantLeg
				{
					OFFSET 0.918482 -16.533964 -2.284700
					CHANNELS 3 Xrotation Yrotation Zrotation
					End Site
					{
						OFFSET 0.350399 24.744368 0.000000
					}
				}
			}
		}
		JOINT RightUpLeg
		{
			OFFSET -8.479700 -4.795502 -0.379100
			CHANNELS 3 Xrotation Yrotation Zrotation
			JOINT RightLeg
			{
				OFFSET -0.023144 -32.555092 0.112900
				CHANNELS 3 Xrotation Yrotation Zrotation
				JOINT RightFoot
				{
					OFFSET 0.023144 -32.638641 -3.012700
					CHANNELS 3 Xrotation Yrotation Zrotation
					JOINT RightToeBase
					{
						OFFSET -0.970200 -13.225400 11.864200
						CHANNELS 3 Xrotation Yrotation Zrotation
						End Site
						{
							OFFSET 0.000000 12.319244 0.000000
						}
					}
					JOINT RFootTongue
					{
						OFFSET -1.142200 -1.059800 6.665200
						CHANNELS 3 Xrotation Yrotation Zrotation
						End Site
						{
							OFFSET 0.000000 12.319243 0.000000
						}
					}
				}
				JOINT RightPantLeg
				{
					OFFSET -0.919482 -16.533978 -2.284800
					CHANNELS 3 Xrotation Yrotation Zrotation
					End Site
					{
						OFFSET -0.350400 24.744419 0.000000
					}
				}
			}
		}
	}
	JOINT Spine
	{
		OFFSET 0.000000 7.722000 1.166200
		CHANNELS 3 Xrotation Yrotation Zrotation
		JOINT Spine1
		{
			OFFSET 0.000000 12.024101 0.248800
			CHANNELS 3 Xrotation Yrotation Zrotation
			JOINT Spine2
			{
				OFFSET 0.000000 11.502998 -0.491200
				CHANNELS 3 Xrotation Yrotation Zrotation
				JOINT Neck
				{
					OFFSET 0.000000 18.430702 -3.123100
					CHANNELS 3 Xrotation Yrotation Zrotation
					JOINT Head
					{
						OFFSET 0.000000 9.051102 1.034000
						CHANNELS 3 Xrotation Yrotation Zrotation
						JOINT HairB
						{
							OFFSET 0.208400 24.786102 24.822300
							CHANNELS 3 Xrotation Yrotation Zrotation
							End Site
							{
								OFFSET 0.000000 32.263779 0.000000
							}
						}
						JOINT HairA
						{
							OFFSET -7.081100 24.428299 23.196600
							CHANNELS 3 Xrotation Yrotation Zrotation
							End Site
							{
								OFFSET 0.000000 32.263779 0.000000
							}
						}
						JOINT Hat
						{
							OFFSET 16.728800 15.048294 -15.439601
							CHANNELS 3 Xrotation Yrotation Zrotation
							End Site
							{
								OFFSET 0.000000 32.263779 0.000000
							}
						}
					}
				}
				JOINT LeftShoulder
				{
					OFFSET 6.197800 13.665199 -4.064700
					CHANNELS 3 Xrotation Yrotation Zrotation
					JOINT LeftArm
					{
						OFFSET 7.778100 -0.187103 -1.709300
						CHANNELS 3 Xrotation Yrotation Zrotation
						JOINT LeftForeArm
						{
							OFFSET 22.049376 0.000000 0.000000
							CHANNELS 3 Xrotation Yrotation Zrotation
							JOINT LeftHand
							{
								OFFSET 23.009392 0.000000 0.000000
								CHANNELS 3 Xrotation Yrotation Zrotation
								JOINT LeftHandThumb1
								{
									OFFSET 3.507191 -2.063065 3.133727
									CHANNELS 3 Xrotation Yrotation Zrotation
									JOINT LeftHandThumb2
									{
										OFFSET 3.101337 -1.790558 1.790558
										CHANNELS 3 Xrotation Yrotation Zrotation
										JOINT LeftHandThumb3
										{
											OFFSET 3.058640 -1.765907 1.765906
											CHANNELS 3 Xrotation Yrotation Zrotation
											End Site
											{
												OFFSET -0.415260 3.926476 -0.049563
											}
										}
									}
								}
								JOINT LeftHandIndex1
								{
									OFFSET 11.334419 -0.901459 3.706815
									CHANNELS 3 Xrotation Yrotation Zrotation
									JOINT LeftHandIndex2
									{
										OFFSET 3.283112 0.000000 0.000000
										CHANNELS 3 Xrotation Yrotation Zrotation
										JOINT LeftHandIndex3
										{
											OFFSET 3.323853 0.000000 0.000000
											CHANNELS 3 Xrotation Yrotation Zrotation
											End Site
											{
												OFFSET -1.135597 3.097809 0.402452
											}
										}
									}
								}
								JOINT LeftHandMiddle1
								{
									OFFSET 11.335861 0.000000 0.000000
									CHANNELS 3 Xrotation Yrotation Zrotation
									JOINT LeftHandMiddle2
									{
										OFFSET 3.410492 0.000000 0.000000
										CHANNELS 3 Xrotation Yrotation Zrotation
										JOINT LeftHandMiddle3
										{
											OFFSET 3.312172 0.000000 0.000000
											CHANNELS 3 Xrotation Yrotation Zrotation
											End Site
											{
												OFFSET -1.150200 3.080154 0.400270
											}
										}
									}
								}
								JOINT LeftHandRing1
								{
									OFFSET 11.514786 -0.013176 -3.003090
									CHANNELS 3 Xrotation Yrotation Zrotation
									JOINT LeftHandRing2
									{
										OFFSET 3.053307 0.000000 0.000000
										CHANNELS 3 Xrotation Yrotation Zrotation
										JOINT LeftHandRing3
										{
											OFFSET 3.295807 0.000000 0.000000
											CHANNELS 3 Xrotation Yrotation Zrotation
											End Site
											{
												OFFSET -1.281006 3.013344 0.375733
											}
										}
									}
								}
								JOINT LeftHandPinky1
								{
									OFFSET 10.518692 -0.960396 -5.730441
									CHANNELS 3 Xrotation Yrotation Zrotation
									JOINT LeftHandPinky2
									{
										OFFSET 2.861649 0.000000 0.000000
										CHANNELS 3 Xrotation Yrotation Zrotation
										JOINT LeftHandPinky3
										{
											OFFSET 2.863380 0.000000 0.000000
											CHANNELS 3 Xrotation Yrotation Zrotation
											End Site
											{
												OFFSET -0.843597 2.711159 0.369971
											}
										}
									}
								}
							}
							JOINT LSleeve
							{
								OFFSET 6.676277 -0.344902 -1.011730
								CHANNELS 3 Xrotation Yrotation Zrotation
								End Site
								{
									OFFSET 0.000000 14.885353 0.000000
								}
							}
						}
					}
				}
				JOINT RightShoulder
				{
					OFFSET -6.197800 13.665199 -4.064700
					CHANNELS 3 Xrotation Yrotation Zrotation
					JOINT RightArm
					{
						OFFSET -7.778100 -0.187103 -1.709300
						CHANNELS 3 Xrotation Yrotation Zrotation
						JOINT RightForeArm
						{
							OFFSET -22.049376 0.000000 0.000000
							CHANNELS 3 Xrotation Yrotation Zrotation
							JOINT RightHand
							{
								OFFSET -23.009392 0.000000 0.000000
								CHANNELS 3 Xrotation Yrotation Zrotation
								JOINT RightHandThumb1
								{
									OFFSET -3.507191 -2.063065 3.133727
									CHANNELS 3 Xrotation Yrotation Zrotation
									JOINT RightHandThumb2
									{
										OFFSET -3.101337 -1.790558 1.790558
										CHANNELS 3 Xrotation Yrotation Zrotation
										JOINT RightHandThumb3
										{
											OFFSET -3.058640 -1.765907 1.765906
											CHANNELS 3 Xrotation Yrotation Zrotation
											End Site
											{
												OFFSET 0.415260 3.926476 -0.049563
											}
										}
									}
								}
								JOINT RightHandIndex1
								{
									OFFSET -11.334419 -0.901459 3.706815
									CHANNELS 3 Xrotation Yrotation Zrotation
									JOINT RightHandIndex2
									{
										OFFSET -3.283112 0.000000 0.000000
										CHANNELS 3 Xrotation Yrotation Zrotation
										JOINT RightHandIndex3
										{
											OFFSET -3.323853 0.000000 0.000000
											CHANNELS 3 Xrotation Yrotation Zrotation
											End Site
											{
												OFFSET 1.135597 3.097809 0.402452
											}
										}
									}
								}
								JOINT RightHandMiddle1
								{
									OFFSET -11.335861 0.000000 0.000000
									CHANNELS 3 Xrotation Yrotation Zrotation
									JOINT RightHandMiddle2
									{
										OFFSET -3.410492 0.000000 0.000000
										CHANNELS 3 Xrotation Yrotation Zrotation
										JOINT RightHandMiddle3
										{
											OFFSET -3.312172 0.000000 0.000000
											CHANNELS 3 Xrotation Yrotation Zrotation
											End Site
											{
												OFFSET 1.150200 3.080154 0.400270
											}
										}
									}
								}
								JOINT RightHandRing1
								{
									OFFSET -11.514786 -0.013176 -3.003090
									CHANNELS 3 Xrotation Yrotation Zrotation
									JOINT RightHandRing2
									{
										OFFSET -3.053307 0.000000 0.000000
										CHANNELS 3 Xrotation Yrotation Zrotation
										JOINT RightHandRing3
										{
											OFFSET -3.295807 0.000000 0.000000
											CHANNELS 3 Xrotation Yrotation Zrotation
											End Site
											{
												OFFSET 1.281006 3.013344 0.375733
											}
										}
									}
								}
								JOINT RightHandPinky1
								{
									OFFSET -10.518692 -0.960396 -5.730441
									CHANNELS 3 Xrotation Yrotation Zrotation
									JOINT RightHandPinky2
									{
										OFFSET -2.861649 0.000000 0.000000
										CHANNELS 3 Xrotation Yrotation Zrotation
										JOINT RightHandPinky3
										{
											OFFSET -2.863380 0.000000 0.000000
											CHANNELS 3 Xrotation Yrotation Zrotation
											End Site
											{
												OFFSET 0.843597 2.711159 0.369971
											}
										}
									}
								}
							}
							JOINT RSleeve
							{
								OFFSET -6.676277 -0.344902 -1.011730
								CHANNELS 3 Xrotation Yrotation Zrotation
								End Site
								{
									OFFSET 0.000000 14.885353 0.000000
								}
							}
						}
					}
				}
				JOINT Backpack
				{
					OFFSET 0.000000 -2.471497 36.677502
					CHANNELS 3 Xrotation Yrotation Zrotation
					End Site
					{
						OFFSET 0.000000 20.427315 0.000000
					}
				}
				JOINT Hood
				{
					OFFSET 0.000000 18.754097 -10.431000
					CHANNELS 3 Xrotation Yrotation Zrotation
					JOINT Hood1
					{
						OFFSET 0.000000 -5.011002 -7.685901
						CHANNELS 3 Xrotation Yrotation Zrotation
						End Site
						{
							OFFSET 0.000000 9.175140 0.000000
						}
					}
				}
				JOINT LHoodieString
				{
					OFFSET 5.250500 16.397697 3.089900
					CHANNELS 3 Xrotation Yrotation Zrotation
					JOINT LHoodieString1
					{
						OFFSET 0.257700 -6.364304 3.694600
						CHANNELS 3 Xrotation Yrotation Zrotation
						JOINT LHoodieString2
						{
							OFFSET 0.000000 -9.643799 2.679100
							CHANNELS 3 Xrotation Yrotation Zrotation
							End Site
							{
								OFFSET 0.000000 10.009018 0.000000
							}
						}
					}
				}
				JOINT RHoodieString
				{
					OFFSET -5.250500 16.397697 3.089900
					CHANNELS 3 Xrotation Yrotation Zrotation
					JOINT RHoodieString1
					{
						OFFSET -0.257700 -6.364304 3.694600
						CHANNELS 3 Xrotation Yrotation Zrotation
						JOINT RHoodieString2
						{
							OFFSET 0.000000 -9.643799 2.679100
							CHANNELS 3 Xrotation Yrotation Zrotation
							End Site
							{
								OFFSET 0.000000 10.009018 0.000000
							}
						}
					}
				}
			}
			JOINT LBackpack_Strap
			{
				OFFSET 15.223200 -7.719803 -6.610900
				CHANNELS 3 Xrotation Yrotation Zrotation
				End Site
				{
					OFFSET 0.000000 16.040596 0.000000
				}
			}
			JOINT RBackpack_Strap
			{
				OFFSET -15.223000 -7.719803 -6.610900
				CHANNELS 3 Xrotation Yrotation Zrotation
				End Site
				{
					OFFSET 0.000000 16.040596 0.000000
				}
			}
		}
	}
	JOINT BoyFacialAnim_Joint
	{
		OFFSET 1.000000 -82.208099 -1.550900
		CHANNELS 3 Xrotation Yrotation Zrotation
		End Site
		{
			OFFSET 0.000000 30.012791 0.000000
		}
	}
}
MOTION
Frames: 4
Frame Time: 0.033333
-3.416260 83.356842 61.103821 -3.319224 0.412191 -10.310010 0.000000 -0.000000 -0.000000 -19.719099 10.032660 1.501804 36.427001 9.153245 1.333757 7.467911 23.902242 3.874608 -0.000000 0.000003 -0.000001 -0.000000 0.000003 -0.000001 -0.000001 0.000001 0.000000 -62.489681 -22.232127 -41.729802 83.348477 -9.311407 -0.443822 66.196978 -2.259410 -2.626208 -0.000001 0.000000 -0.000003 -0.000001 0.000000 -0.000003 0.000001 0.000002 -0.000002 -0.336600 0.126704 3.816498 -0.775264 1.237352 2.034325 -0.815274 1.207864 2.036272 1.974523 1.179249 4.521984 13.487455 10.730130 12.450077 0.000000 -0.000001 -0.000001 0.000000 -0.000001 -0.000001 0.000000 -0.000001 -0.000001 -0.140077 2.751281 5.232692 -45.642377 -19.423555 -17.609105 0.000003 -0.228156 -0.000001 -87.418867 -36.625281 61.173476 -1.994825 1.965316 14.173978 3.946763 7.971384 0.752852 0.000002 -0.000004 0.000000 0.058679 -0.898808 7.469562 0.000004 -0.000001 -0.000070 -0.000002 -0.000003 -0.000002 0.058933 -0.900715 7.485544 0.000008 0.001930 -0.015995 0.000002 -0.000004 -0.000000 0.058679 -0.898808 7.469568 -0.000008 -0.000004 0.000013 -0.000000 -0.000001 0.000001 -0.486633 3.118692 7.990554 -0.018093 -4.054259 -0.511054 0.000002 0.000002 -0.000005 0.000001 0.000000 -0.000000 -1.234531 -7.567706 -9.052813 -227.556003 106.421956 173.405143 -0.000000 35.674918 -0.000002 -63.785743 7.268342 67.927290 -1.770295 -3.366576 -5.678634 4.645034 -8.656777 -0.231315 -0.000001 -0.000002 0.000000 0.000781 -0.104315 0.856087 0.000006 0.000012 0.000007 -0.000001 -0.000001 0.000003 0.000779 -0.104325 0.856093 0.000001 0.000000 0.000002 0.000000 0.000003 0.000000 0.000778 -0.104329 0.856092 0.000002 0.000003 0.000001 0.000001 0.000002 0.000002 0.000779 -0.104322 0.856082 0.000000 0.000002 0.000000 0.000001 0.000003 0.000002 -0.000001 0.000000 -0.000003 -0.000000 -0.000000 0.000000 -0.000000 -0.000000 0.000000 -0.000000 -0.000000 0.000000 -0.000000 -0.000000 0.000000 -0.000000 -0.000000 0.000000 -0.000000 -0.000000 -0.000000 -0.000000 -0.000000 0.000000 -0.000000 -0.000000 0.000000 -0.000000 -0.000000 -0.000000 -0.000000 0.000000 -0.000000 -0.000000 0.000000 -0.000000 0.000000 -0.000000 -0.000000 
-3.186161 84.027466 62.509090 -3.908609 0.765973 -11.787891 0.000000 -0.000000 0.000001 -21.098347 9.370208 4.076224 37.921931 8.801911 1.319715 15.684324 24.649302 2.074760 -0.000000 -0.000001 0.000002 -0.000000 -0.000001 0.000002 -0.000000 -0.000002 0.000002 -67.796219 -21.254188 -44.516714 90.899252 -7.721420 -0.284542 67.543276 -0.821458 -1.800549 -0.000001 -0.000001 -0.000002 -0.000001 -0.000001 -0.000002 -0.000000 -0.000000 -0.000000 -0.277177 -0.197742 5.832845 -0.790485 0.683952 3.147213 -0.815712 0.640056 3.149608 3.176794 1.400282 4.405847 14.568356 11.478633 11.794215 0.000000 -0.000000 -0.000001 0.000000 -0.000000 -0.000001 0.000000 -0.000000 -0.000001 -0.733833 4.722310 8.937631 -47.718195 -22.693503 -13.057287 -0.000004 -2.295665 0.000009 -73.545769 -37.586319 67.445365 -1.678849 2.985746 9.210504 3.946764 7.971387 0.752850 -0.000002 -0.000001 0.000003 0.004866 -0.259059 2.147176 0.000004 -0.000009 -0.000068 -0.000000 0.000002 -0.000002 0.004939 -0.260981 2.163150 0.000010 0.001929 -0.015988 -0.000000 -0.000001 0.000002 0.004866 -0.259046 2.147171 -0.000007 -0.000002 0.000012 0.000000 -0.000003 -0.000001 -0.165313 3.791685 2.662842 -0.018088 -4.054259 -0.511052 -0.000003 -0.000001 0.000001 0.000002 0.000002 -0.000000 -1.696013 -8.566024 -11.847298 -228.191006 110.953397 166.208856 -0.000003 23.347940 0.000010 -67.706258 6.131272 66.712630 -1.640833 -3.101831 -3.581848 4.645034 -8.656776 -0.231318 0.000000 0.000002 0.000000 0.008761 -0.349692 2.870600 0.000006 0.000009 0.000008 -0.000000 -0.000002 0.000001 0.008761 -0.349696 2.870603 0.000001 0.000000 0.000002 0.000001 -0.000001 -0.000000 0.008763 -0.349690 2.870612 0.000003 -0.000001 0.000002 -0.000001 -0.000000 0.000002 0.008762 -0.349686 2.870598 -0.000000 0.000009 -0.000000 -0.000001 -0.000002 -0.000000 0.000001 0.000000 0.000001 -0.000000 0.000000 -0.000000 -0.000000 0.000000 -0.000000 -0.000000 0.000000 -0.000000 -0.000000 0.000000 -0.000000 -0.000000 0.000000 -0.000000 -0.000000 -0.000000 -0.000000 -0.000000 0.000000 -0.000000 -0.000000 0.000000 -0.000000 -0.000000 -0.000000 -0.000000 -0.000000 -0.000000 0.000000 -0.000000 -0.000000 0.000000 0.000000 -0.000000 0.000001 
-3.005108 84.260597 63.957279 -4.255412 1.071351 -12.580023 -0.000000 -0.000000 0.000001 -22.570169 8.776892 6.091850 39.543684 8.580811 1.327407 23.597969 25.115815 -0.365908 0.000001 0.000001 0.000000 0.000001 0.000001 0.000000 0.000000 0.000002 -0.000001 -73.284631 -20.249387 -47.052166 99.429407 -3.712259 -0.111708 68.766870 -0.465554 0.448059 -0.000000 0.000000 -0.000003 -0.000000 0.000000 -0.000003 -0.000000 -0.000001 0.000001 -0.181241 -0.474079 7.038539 -0.726793 0.159794 4.019209 -0.731614 0.104013 4.019680 3.971381 1.535821 4.255102 14.781057 11.766934 11.319031 0.000000 0.000000 -0.000001 0.000000 0.000000 -0.000001 0.000000 0.000000 -0.000001 -1.459941 6.805847 12.476264 -49.135671 -26.169188 -7.641177 -0.000011 -5.956302 0.000006 -58.072393 -34.051717 73.941456 -1.490809 3.676695 6.224003 3.946763 7.971387 0.752853 -0.000001 0.000001 -0.000003 0.000393 0.073607 -0.609975 0.000004 -0.000003 -0.000067 -0.000001 -0.000002 -0.000002 0.000373 0.071686 -0.594000 0.000009 0.001932 -0.015989 0.000003 -0.000002 -0.000002 0.000400 0.073617 -0.609986 -0.000005 -0.000002 0.000010 0.000002 0.000001 -0.000000 0.025541 4.127829 -0.100468 -0.018096 -4.054257 -0.511055 0.000001 0.000001 -0.000000 -0.000001 0.000001 0.000000 -2.131839 -9.470019 -14.223072 -227.465858 116.000135 158.695784 -0.000005 11.882262 0.000014 -78.016716 4.279387 61.642280 -1.562028 -2.963690 -1.591293 4.645035 -8.656783 -0.231315 0.000001 0.000001 0.000003 0.024496 -0.584408 4.801173 0.000006 0.000012 0.000007 0.000002 0.000000 0.000002 0.024501 -0.584405 4.801182 0.000002 -0.000002 0.000005 0.000000 0.000000 0.000005 0.024501 -0.584403 4.801184 0.000002 0.000006 -0.000004 0.000000 0.000004 0.000003 0.024499 -0.584404 4.801168 -0.000000 0.000003 0.000001 0.000000 -0.000001 -0.000002 0.000001 0.000000 0.000001 0.000000 0.000000 0.000000 0.000000 0.000000 0.000000 0.000000 0.000000 0.000000 0.000000 0.000000 0.000000 0.000000 0.000000 0.000000 -0.000000 0.000000 0.000000 0.000000 0.000000 0.000000 0.000000 0.000000 0.000000 -0.000000 0.000000 0.000000 -0.000000 0.000000 0.000000 -0.000000 0.000000 0.000000 -0.000000 -0.000000 0.000001 
-2.764599 84.242836 65.380310 -4.295791 1.322811 -12.912951 -0.000000 0.000000 0.000000 -23.632065 8.249386 7.381201 40.679705 8.485916 1.355631 30.103290 25.365519 -2.811410 -0.000000 0.000002 0.000000 -0.000000 0.000002 -0.000001 -0.000000 0.000000 0.000001 -77.876874 -19.218573 -48.589317 106.824247 -0.297246 0.002278 69.297740 -0.161120 2.442456 -0.000000 -0.000000 0.000003 -0.000000 -0.000000 0.000003 -0.000001 0.000002 0.000000 -0.023786 -0.777231 7.756643 -0.523915 -0.463355 4.943140 -0.502470 -0.526373 4.938973 4.317084 1.653651 3.889941 14.253862 11.772109 10.513772 -0.000000 0.000000 0.000002 -0.000000 0.000000 0.000002 -0.000000 0.000000 0.000002 -2.222970 8.767178 15.646483 -49.441769 -30.980157 -1.155318 -0.000003 -9.930493 0.000010 -47.466656 -27.846898 74.052774 -1.494401 3.835900 5.618397 3.946766 7.971387 0.752854 -0.000001 0.000002 -0.000001 0.000510 0.084351 -0.698892 0.000001 -0.000003 -0.000067 -0.000002 -0.000001 -0.000000 0.000486 0.082414 -0.682911 0.000014 0.001929 -0.015990 0.000002 -0.000000 0.000000 0.000508 0.084350 -0.698896 -0.000004 -0.000001 0.000010 -0.000001 -0.000001 -0.000000 0.031964 4.138516 -0.189620 -0.018092 -4.054259 -0.511051 0.000000 -0.000000 0.000002 0.000002 0.000000 0.000003 -2.484470 -10.098573 -16.048535 -226.785462 121.797846 152.279027 -0.000008 3.538883 -0.000011 -95.233314 3.553121 61.048647 -1.563742 -3.067479 -1.073638 4.645033 -8.656777 -0.231316 0.000001 0.000003 -0.000005 0.030122 -0.647862 5.323968 0.000005 0.000012 0.000004 -0.000001 0.000001 -0.000003 0.030123 -0.647861 5.323979 0.000004 0.000004 0.000001 0.000000 0.000000 -0.000000 0.030123 -0.647865 5.323969 0.000002 0.000002 -0.000006 0.000001 -0.000000 0.000002 0.030119 -0.647861 5.323963 -0.000003 0.000004 -0.000001 0.000003 0.000001 -0.000001 -0.000001 -0.000000 -0.000000 0.000000 0.000000 0.000000 0.000000 0.000000 0.000000 0.000000 0.000000 0.000000 0.000000 0.000000 0.000000 0.000000 0.000000 -0.000000 0.000000 0.000000 0.000000 0.000000 0.000000 0.000000 0.000000 0.000000 -0.000000 0.000000 0.000000 0.000000 -0.000000 -0.000000 -0.000000 -0.000000 -0.000000 -0.000000 -0.000000 0.000000 0.000000 
